<svg class="w-full h-auto" xmlns="http://www.w3.org/2000/svg" viewBox="0 0 1500 223">
  <g fill="none" fill-rule="evenodd">
    <path fill="#F9ECE5" d="M0 55.3c221.686 47.8 400.113 66.033 535.28 54.7 191.63-16.067 389.862-59 537.967-77.949C1281.517 5.405 1423.768-4.479 1500 2.4V223H0V55.3z"/>
    <path fill="#F6E3D8" d="M1160.72 32.15c64.097-11.95 137.428-24.86 220.175-29.75C1406.05.913 1445.752.913 1500 2.4V103c-172.01-37.755-285.103-61.371-339.28-70.85z"/>
    <path fill="#EDC7B0" d="M0 153c85.9-22.248 164.276-40.869 235.127-55.863C351.698 112.717 451.75 117.004 535.28 110c191.63-16.067 389.861-59 537.966-77.949C1150.506 22.04 1292.757 43.822 1500 97.4V223H0v-70z"/>
    <path fill="#E5AB86" d="M0 213.249c99.05-2.619 183.968-7.486 254.753-14.602 106.177-10.675 198.514-30.642 308.158-50.79C672.555 127.71 997.024 53.248 1158.67 32.15c83.751 5.782 197.528 27.532 341.33 65.25V223H0v-9.751z"/>
  </g>
</svg>