<?xml version="1.0" encoding="UTF-8"?>
<svg width="1280px" height="100px" viewBox="0 0 1280 100" version="1.1" xmlns="http://www.w3.org/2000/svg" xmlns:xlink="http://www.w3.org/1999/xlink">
    <title>Group 7</title>
    <defs>
        <rect id="path-1" x="0" y="0" width="1280" height="100"></rect>
        <filter color-interpolation-filters="auto" id="filter-3">
            <feColorMatrix in="SourceGraphic" type="matrix" values="0 0 0 0 0.898039 0 0 0 0 0.670588 0 0 0 0 0.525490 0 0 0 1.000000 0"></feColorMatrix>
        </filter>
    </defs>
    <g id="Page-1" stroke="none" stroke-width="1" fill="none" fill-rule="evenodd">
        <g id="Event---Single" transform="translate(0.000000, -1514.000000)">
            <g id="Group-7" transform="translate(0.000000, 1514.000000)">
                <mask id="mask-2" fill="white">
                    <use xlink:href="#path-1"></use>
                </mask>
                <use id="Mask" fill-opacity="0" fill="#FFFFFF" xlink:href="#path-1"></use>
                <g filter="url(#filter-3)" id="Group">
                    <g mask="url(#mask-2)">
                        <g transform="translate(1018.000000, 50.000000) scale(1, -1) translate(-1018.000000, -50.000000) " fill="#000000" fill-rule="nonzero" id="Path">
                            <path d="M963.028,67.3011305 C547.8876,155.602614 427.3564,33.3005594 310.8972,67.3011305 C134.376,119.102001 0,59.7010029 0,59.7010029 L0,0 L2036,0 L2036,59.7010029 C2036,59.7010029 1909.5644,85.8014413 1842.7836,89.0014951 C1776.0028,92.3015505 1714.9228,76.7012885 1688.4548,66.9011238 C1641.016,49.6008332 1517.4308,8.70014615 1414.8164,4.70007895 C1312.202,0.700011759 1002.5264,59.0009911 963.028,67.3011305 Z" opacity="0.33"></path>
                            <path d="M1494.424,67.6788661 C1401.786,67.6788661 1337.2448,44.3482615 1231.5764,28.3587522 C1173.3468,19.6097755 925.5656,18.2018942 714.4324,67.6788661 C503.2992,117.155838 527.7312,33.0852109 410.6612,67.6788661 C235.5652,118.965971 0,40.0240546 0,40.0240546 L0,0 L2036,0 L2036,36.7054772 C2036,36.7054772 1978.5848,18.1013312 1848.4844,18.1013312 C1649.5672,18.2018942 1579.3252,67.6788661 1494.424,67.6788661 Z" opacity="0.66"></path>
                            <path d="M1559.7796,28.9307157 C1152.5796,-28.6303969 1018.2036,94.5003309 755.356,48.4514409 C492.712,1.80191309 492.712,5.40573927 376.2528,20.6218943 C260.608,35.8380492 269.3628,44.947721 183.0364,52.5557985 C58.2296,63.7677021 0,0 0,0 L2036,0 C2036,0 2015.8436,40.9434697 1865.7904,48.151122 C1715.7372,55.3587744 1689.0656,47.0499529 1559.7796,28.9307157 Z"></path>
                        </g>
                    </g>
                </g>
            </g>
        </g>
    </g>
</svg>